<?xml version="1.0" encoding="UTF-8"?>
<svg version="1.1" xmlns="http://www.w3.org/2000/svg" width="512" height="512">
<path d="M0 0 C8.77445972 5.58194163 11.54538699 16.23218849 14.4375 25.625 C14.64838257 26.29589661 14.85926514 26.96679321 15.07653809 27.65802002 C27.8596432 68.35532579 36.45180589 110.83779979 37.5625 153.5625 C37.58441406 154.31917969 37.60632813 155.07585937 37.62890625 155.85546875 C39.23565484 219.80406248 22.09572531 279.8959495 -21.87109375 327.1796875 C-49.70941158 355.86159072 -88.11475123 374.71553451 -128.34375 375.765625 C-158.06534635 376.12241061 -186.15028144 371.61416823 -214.18359375 361.6640625 C-217.18068012 360.45561368 -217.18068012 360.45561368 -219.4375 360.5625 C-224.24066844 372.95384035 -228.95767867 385.29236456 -232.40869141 398.13964844 C-234.14184211 404.36317516 -236.29756764 408.96804059 -241.625 412.9375 C-245.82890888 415.09358202 -249.81346553 415.24722905 -254.4375 414.5625 C-259.71072153 412.73715409 -262.23441086 409.95530797 -265.4375 405.5625 C-268.24153748 397.15038755 -265.55755259 389.40313092 -262.9375 381.3125 C-262.5751123 380.16934326 -262.21272461 379.02618652 -261.83935547 377.84838867 C-254.30476645 354.42139196 -244.88203143 331.50382705 -233.52539062 309.66455078 C-232.31956487 307.33462264 -231.13666158 304.99366822 -229.953125 302.65234375 C-208.52511312 260.60291978 -179.39381685 223.32862423 -146.10351562 190.04321289 C-144.43328905 188.3707835 -142.77127621 186.69046331 -141.109375 185.00976562 C-135.25425532 179.12484698 -129.3162304 173.60421423 -122.7956543 168.453125 C-120.52539698 166.63297047 -118.38201397 164.72904922 -116.25 162.75 C-92.2636793 141.15362067 -92.2636793 141.15362067 -80.4921875 141.34765625 C-76.07514017 141.80951481 -73.11493035 144.03903109 -69.6875 146.6875 C-66.33374046 150.97285941 -65.15163573 155.30131375 -65.62890625 160.74609375 C-67.17171205 168.09874482 -71.69085164 172.03673964 -77.5 176.3125 C-78.66760834 177.19276274 -79.83425997 178.07429579 -81 178.95703125 C-81.87011719 179.61372803 -81.87011719 179.61372803 -82.7578125 180.28369141 C-90.3410888 186.05712182 -97.45047822 192.29906433 -104.41796875 198.7890625 C-106.63575911 200.84990729 -108.90768938 202.83474228 -111.203125 204.80859375 C-116.01034363 208.99859628 -120.50322185 213.48168899 -125 218 C-125.81146484 218.80759766 -126.62292969 219.61519531 -127.45898438 220.44726562 C-132.32736072 225.32350053 -136.95723828 230.32959341 -141.4375 235.5625 C-142.36298381 236.61078931 -143.28998469 237.65774192 -144.21875 238.703125 C-167.99605842 265.76125933 -188.18558125 296.46220901 -204.4375 328.5625 C-193.18342704 332.66887573 -182.01566211 336.11399557 -170.25 338.4375 C-168.71194702 338.74143677 -168.71194702 338.74143677 -167.14282227 339.05151367 C-133.79196372 345.34366734 -97.56593789 341.50168022 -68.97998047 322.04394531 C-30.34286512 294.54103679 -7.80118489 254.35216117 0.296875 207.97607422 C8.15877349 159.52543039 1.86215496 110.62371808 -10.40283203 63.50244141 C-10.69170792 62.38893311 -10.69170792 62.38893311 -10.98641968 61.25292969 C-11.3469661 59.86893401 -11.71111683 58.48586964 -12.07974243 57.10400391 C-13.17176399 52.92753565 -13.89868715 48.83648481 -14.4375 44.5625 C-14.85257812 44.94019531 -15.26765625 45.31789062 -15.6953125 45.70703125 C-47.47849415 74.0991203 -83.52823689 84.76412002 -124.0625 95.1875 C-145.30992001 100.65343862 -165.57060361 107.17836691 -185.4375 116.5625 C-186.53320312 117.06394531 -187.62890625 117.56539063 -188.7578125 118.08203125 C-219.31508815 132.56282898 -241.55236051 158.87939735 -252.875 190.46484375 C-256.10413818 199.98211839 -257.98431255 209.63407944 -259.4375 219.5625 C-259.57027344 220.44035156 -259.70304687 221.31820312 -259.83984375 222.22265625 C-262.80003798 245.8636595 -259.22431186 271.03755513 -251.0625 293.3125 C-249.02465858 299.1598572 -248.69729358 303.88873089 -251.38671875 309.56640625 C-254.22018557 314.07547803 -257.24712514 316.06696826 -262.4375 317.5625 C-267.77970704 318.29757112 -271.91352649 317.57848234 -276.4375 314.5625 C-281.05930618 309.82294079 -283.02154214 305.20078839 -285 298.9375 C-285.29737061 298.01380615 -285.59474121 297.0901123 -285.90112305 296.13842773 C-300.64629823 248.91287485 -296.653262 196.90600171 -273.79052734 153.02978516 C-267.23902079 141.08292027 -258.5813969 130.60079807 -249.4375 120.5625 C-248.42623047 119.44294922 -248.42623047 119.44294922 -247.39453125 118.30078125 C-237.61395917 108.01971081 -225.57850663 99.79464284 -213.4375 92.5625 C-212.35984375 91.91925781 -211.2821875 91.27601563 -210.171875 90.61328125 C-184.35216899 76.08232798 -155.50389185 67.74339322 -126.93933105 60.55960083 C-111.91834073 56.77780863 -97.13094058 52.48240893 -82.4375 47.5625 C-81.63425293 47.29373047 -80.83100586 47.02496094 -80.00341797 46.74804688 C-58.54637874 39.37787082 -40.38363832 24.74133667 -27.375 6.25 C-20.78966495 -2.52460867 -10.11218414 -4.21989223 0 0 Z " fill="#000000" transform="translate(384.4375,49.4375)"/>
</svg>
