<?xml version="1.0" encoding="UTF-8"?>
<svg version="1.1" xmlns="http://www.w3.org/2000/svg" width="512" height="512">
<path d="M0 0 C4.62427442 2.19044578 6.69825076 4.50749906 9 9 C10.68039488 18.77335365 7.47790603 28.65803568 5.0390625 38.05078125 C4.61598237 39.72345809 4.19417103 41.39645628 3.77352905 43.06974792 C2.64172296 47.55737591 1.49266113 52.04041716 0.340271 56.52279663 C-0.86163808 61.21048816 -2.04720912 65.90230743 -3.234375 70.59375 C-5.18384764 78.28946378 -7.14249599 85.98278391 -9.10839844 93.67431641 C-11.83027723 104.32446294 -14.53187206 114.97966491 -17.2265625 125.63671875 C-18.04105975 128.85704499 -18.8556879 132.0773381 -19.67041016 135.29760742 C-19.86604994 136.07092942 -20.06168972 136.84425142 -20.26325798 137.64100742 C-21.58054607 142.84647789 -22.90114924 148.05109826 -24.22412109 153.25512695 C-24.40241266 153.95653903 -24.58070423 154.65795111 -24.76439857 155.3806181 C-25.58418393 158.60530852 -26.40445489 161.82987356 -27.22549438 165.054245 C-29.84707395 175.36199739 -32.4252508 185.68046518 -35 196 C-34.36131422 195.99631283 -33.72262844 195.99262566 -33.06458855 195.98882675 C-17.51540769 195.90044354 -1.96631435 195.83427487 13.5830555 195.79275131 C21.10266269 195.77213646 28.62210208 195.74403668 36.14160156 195.69824219 C42.69651874 195.65834117 49.25131438 195.63255935 55.80634964 195.62364602 C59.27642927 195.61843671 62.74616123 195.60621606 66.2161293 195.57707977 C70.09223132 195.54479807 73.96799493 195.5440427 77.84423828 195.54589844 C78.99150894 195.53151733 80.1387796 195.51713623 81.32081604 195.50231934 C87.52075571 195.53448046 91.31855782 195.77755606 96 200 C99.27846473 204.36894119 99.93860187 208.01178608 99.78125 213.39453125 C98.2193001 220.60293004 93.74306075 226.44514231 89.67675781 232.49023438 C87.3854637 235.91983593 85.18500826 239.40412285 82.98046875 242.88989258 C81.2215109 245.67002869 79.45134466 248.44278636 77.6796875 251.21484375 C73.87471481 257.18288947 70.12065083 263.18209616 66.375 269.1875 C59.47899983 280.24251477 52.53037899 291.26327772 45.56152344 302.27246094 C39.51250591 311.83064482 33.49030179 321.40488796 27.5 331 C21.51421661 340.58787459 15.49635422 350.15474523 9.45166016 359.70556641 C6.9652647 363.63545953 4.48282704 367.56785183 2 371.5 C-0.96298136 376.19258693 -3.92658804 380.88476804 -6.89453125 385.57421875 C-12.456717 394.36606074 -17.99050463 403.17503136 -23.5 412 C-30.43985507 423.11608218 -37.42949272 434.19988429 -44.43847656 445.27246094 C-49.80715903 453.75563262 -55.16108204 462.24739723 -60.47363281 470.76586914 C-62.37080585 473.80577956 -64.27304087 476.8424782 -66.17578125 479.87890625 C-68.75650294 483.99921427 -71.3125811 488.1335942 -73.85546875 492.27734375 C-75.09081224 494.26843618 -76.32647681 496.25932944 -77.5625 498.25 C-78.12179199 499.17272705 -78.68108398 500.0954541 -79.25732422 501.04614258 C-82.26000131 505.85033552 -84.73304085 509.48071862 -90 512 C-95.53324313 512.97984514 -100.47749191 512.72118804 -105.5625 510.3125 C-108.65500801 507.37858214 -110.6987051 504.75236288 -111.43222046 500.48616028 C-111.4417949 491.26643372 -109.33733908 482.80059722 -107.0390625 473.94921875 C-106.61598237 472.27654191 -106.19417103 470.60354372 -105.77352905 468.93025208 C-104.64172296 464.44262409 -103.49266113 459.95958284 -102.340271 455.47720337 C-101.13836192 450.78951184 -99.95279088 446.09769257 -98.765625 441.40625 C-96.81615236 433.71053622 -94.85750401 426.01721609 -92.89160156 418.32568359 C-90.16972277 407.67553706 -87.46812794 397.02033509 -84.7734375 386.36328125 C-83.95894025 383.14295501 -83.1443121 379.9226619 -82.32958984 376.70239258 C-82.13395006 375.92907058 -81.93831028 375.15574858 -81.73674202 374.35899258 C-80.41945393 369.15352211 -79.09885076 363.94890174 -77.77587891 358.74487305 C-77.59758734 358.04346097 -77.41929577 357.34204889 -77.23560143 356.6193819 C-76.41581607 353.39469148 -75.59554511 350.17012644 -74.77450562 346.945755 C-72.15292605 336.63800261 -69.5747492 326.31953482 -67 316 C-67.63868578 316.00368717 -68.27737156 316.00737434 -68.93541145 316.01117325 C-84.48459231 316.09955646 -100.03368565 316.16572513 -115.5830555 316.20724869 C-123.10266269 316.22786354 -130.62210208 316.25596332 -138.14160156 316.30175781 C-144.69651874 316.34165883 -151.25131438 316.36744065 -157.80634964 316.37635398 C-161.27642927 316.38156329 -164.74616123 316.39378394 -168.2161293 316.42292023 C-172.09223132 316.45520193 -175.96799493 316.4559573 -179.84423828 316.45410156 C-180.99150894 316.46848267 -182.1387796 316.48286377 -183.32081604 316.49768066 C-189.52075571 316.46551954 -193.31855782 316.22244394 -198 312 C-201.27846473 307.63105881 -201.93860187 303.98821392 -201.78125 298.60546875 C-200.2193001 291.39706996 -195.74306075 285.55485769 -191.67675781 279.50976562 C-189.3854637 276.08016407 -187.18500826 272.59587715 -184.98046875 269.11010742 C-183.2215109 266.32997131 -181.45134466 263.55721364 -179.6796875 260.78515625 C-175.87471481 254.81711053 -172.12065083 248.81790384 -168.375 242.8125 C-162.43250166 233.28604911 -156.45623118 223.781859 -150.45166016 214.29443359 C-147.9652647 210.36454047 -145.48282704 206.43214817 -143 202.5 C-140.03701864 197.80741307 -137.07341196 193.11523196 -134.10546875 188.42578125 C-128.543283 179.63393926 -123.00949537 170.82496864 -117.5 162 C-110.56014493 150.88391782 -103.57050728 139.80011571 -96.56152344 128.72753906 C-90.51250591 119.16935518 -84.49030179 109.59511204 -78.5 100 C-72.51421661 90.41212541 -66.49635422 80.84525477 -60.45166016 71.29443359 C-57.9652647 67.36454047 -55.48282704 63.43214817 -53 59.5 C-50.03701864 54.80741307 -47.07341196 50.11523196 -44.10546875 45.42578125 C-43.62537354 44.66668457 -43.14527832 43.90758789 -42.65063477 43.12548828 C-41.67657408 41.58564998 -40.70180373 40.04626037 -39.72631836 38.50732422 C-36.8148415 33.90526655 -33.93809164 29.28361895 -31.0859375 24.64453125 C-30.08397339 23.02164185 -30.08397339 23.02164185 -29.06176758 21.3659668 C-27.75639725 19.24986091 -26.45649892 17.13036694 -25.1628418 15.00708008 C-18.44828254 4.14367277 -13.50722633 -1.44720282 0 0 Z M-47 109 C-58.88341883 127.64933503 -70.7157311 146.32806093 -82.42675781 165.08618164 C-87.77187463 173.64425886 -93.15225136 182.179564 -98.54833984 190.70556641 C-101.0347353 194.63545953 -103.51717296 198.56785183 -106 202.5 C-108.96298136 207.19258693 -111.92658804 211.88476804 -114.89453125 216.57421875 C-121.10160277 226.38539631 -127.27020893 236.21993337 -133.4152832 246.07006836 C-136.38770953 250.83184101 -139.36707135 255.58868186 -142.375 260.328125 C-142.90416016 261.16214844 -143.43332031 261.99617187 -143.97851562 262.85546875 C-144.94399418 264.37495104 -145.91123411 265.89331673 -146.88085938 267.41015625 C-149.5734545 271.64755413 -152.14985098 275.94001091 -154.67382812 280.28027344 C-155.61071472 281.89020172 -155.61071472 281.89020172 -156.56652832 283.53265381 C-157.03957397 284.34687805 -157.51261963 285.16110229 -158 286 C-157.10381612 286.00219984 -157.10381612 286.00219984 -156.18952751 286.00444412 C-141.64160417 286.04152101 -127.09388391 286.10054736 -112.54615593 286.18390274 C-105.51091004 286.22368575 -98.47577588 286.25608189 -91.44042969 286.27099609 C-84.65163495 286.28540849 -77.86319905 286.32052806 -71.07455826 286.36830902 C-68.48383722 286.38315277 -65.89306674 286.39104272 -63.30230331 286.39188385 C-59.67495499 286.39424611 -56.04856939 286.42126864 -52.42138672 286.45410156 C-51.34892197 286.4490712 -50.27645721 286.44404083 -49.17149353 286.43885803 C-43.14682634 286.52329413 -39.56540079 286.939122 -35 291 C-31.48648069 296.15316165 -31.34498445 301.25375237 -32.39067268 307.23438454 C-32.95194966 309.69803995 -33.57319373 312.13843791 -34.21899414 314.58129883 C-34.45468613 315.50423737 -34.69037811 316.4271759 -34.93321228 317.37808228 C-35.44297634 319.36906807 -35.95713951 321.35893173 -36.47526741 323.34775734 C-37.29459495 326.49326772 -38.10206725 329.64161495 -38.90660095 332.79093933 C-40.61456822 339.4675579 -42.33787588 346.14016804 -44.0625 352.8125 C-46.06442194 360.56268085 -48.06006923 368.31439715 -50.04250908 376.0695858 C-50.83949582 379.17523222 -51.64656426 382.27814463 -52.45411682 385.38105774 C-52.94001418 387.27580943 -53.42546656 389.17067531 -53.91040039 391.06567383 C-54.13841339 391.9306398 -54.36642639 392.79560577 -54.60134888 393.68678284 C-55.85036821 398.34527317 -55.85036821 398.34527317 -55 403 C-43.11658117 384.35066497 -31.2842689 365.67193907 -19.57324219 346.91381836 C-14.22812537 338.35574114 -8.84774864 329.820436 -3.45166016 321.29443359 C-0.9652647 317.36454047 1.51717296 313.43214817 4 309.5 C6.96298136 304.80741307 9.92658804 300.11523196 12.89453125 295.42578125 C19.10127532 285.61512127 25.26737076 275.77976023 31.4152832 265.93212891 C35.42802322 259.50740734 39.45418208 253.09144442 43.5 246.6875 C44.23138184 245.52951904 44.23138184 245.52951904 44.97753906 244.34814453 C47.07439606 241.03186448 49.17643902 237.71922952 51.296875 234.41796875 C52.26367188 232.91169922 52.26367188 232.91169922 53.25 231.375 C53.79140625 230.53710938 54.3328125 229.69921875 54.890625 228.8359375 C56.0861952 227.21486678 56.0861952 227.21486678 56 226 C55.10381612 225.99780016 55.10381612 225.99780016 54.18952751 225.99555588 C39.64160417 225.95847899 25.09388391 225.89945264 10.54615593 225.81609726 C3.51091004 225.77631425 -3.52422412 225.74391811 -10.55957031 225.72900391 C-17.34836505 225.71459151 -24.13680095 225.67947194 -30.92544174 225.63169098 C-33.51616278 225.61684723 -36.10693326 225.60895728 -38.69769669 225.60811615 C-42.32504501 225.60575389 -45.95143061 225.57873136 -49.57861328 225.54589844 C-50.65107803 225.5509288 -51.72354279 225.55595917 -52.82850647 225.56114197 C-58.85317366 225.47670587 -62.43459921 225.060878 -67 221 C-70.51351931 215.84683835 -70.65501555 210.74624763 -69.60932732 204.76561546 C-69.04805034 202.30196005 -68.42680627 199.86156209 -67.78100586 197.41870117 C-67.54531387 196.49576263 -67.30962189 195.5728241 -67.06678772 194.62191772 C-66.55702366 192.63093193 -66.04286049 190.64106827 -65.52473259 188.65224266 C-64.70540505 185.50673228 -63.89793275 182.35838505 -63.09339905 179.20906067 C-61.38543178 172.5324421 -59.66212412 165.85983196 -57.9375 159.1875 C-55.93557806 151.43731915 -53.93993077 143.68560285 -51.95749092 135.9304142 C-51.16050418 132.82476778 -50.35343574 129.72185537 -49.54588318 126.61894226 C-49.05998582 124.72419057 -48.57453344 122.82932469 -48.08959961 120.93432617 C-47.86158661 120.0693602 -47.63357361 119.20439423 -47.39865112 118.31321716 C-46.14963179 113.65472683 -46.14963179 113.65472683 -47 109 Z " fill="#000000" transform="translate(307,0)"/>
</svg>
